# AST/ASF file generated using VICON BodyLanguage
# -----------------------------------------------
:version 1.10
:name VICON
:units
  mass 1.0
  length 0.45
  angle deg
:documentation
   .ast/.asf automatically generated from VICON data using
   VICON BodyBuilder and BodyLanguage model FoxedUp or BRILLIANT.MOD
:root
   order TX TY TZ RX RY RZ
   axis XYZ
   position 0 0 0  
   orientation 0 0 0 
:bonedata
  begin
     id 1 
     name lhipjoint
     direction 0.610259 -0.730986 0.305356 
     length 2.50941 
     axis 0 0 0  XYZ
  end
  begin
     id 2 
     name lfemur
     direction 0.34202 -0.939693 0  
     length 7.48822  
     axis 0 0 20  XYZ
    dof rx ry rz
    limits (-160.0 20.0)
           (-70.0 70.0)
           (-60.0 70.0)
  end
  begin
     id 3 
     name ltibia
     direction 0.34202 -0.939693 0   
     length 7.60141   
     axis 0 0 20   XYZ
    dof rx
    limits (-10.0 170.0)
  end
  begin
     id 4 
     name lfoot
     direction 0.0673488 -0.185039 0.980421   
     length 2.04049   
     axis -90 7.62852e-016 20   XYZ
    dof rx rz
    limits (-45.0 90.0)
           (-70.0 20.0)
  end
  begin
     id 5 
     name ltoes
     direction 1.5356e-011 -4.21729e-011 1   
     length 1.02897   
     axis -90 7.62852e-016 20   XYZ
    dof rx
    limits (-90.0 20.0)
  end
  begin
     id 6 
     name rhipjoint
     direction -0.57612 -0.754205 0.315056   
     length 2.43216  
     axis 0 0 0  XYZ 
  end
  begin
     id 7 
     name rfemur
     direction -0.34202 -0.939693 0   
     length 7.42799   
     axis 0 0 -20   XYZ
    dof rx ry rz
    limits (-160.0 20.0)
           (-70.0 70.0)
           (-70.0 60.0)
  end
  begin
     id 8 
     name rtibia
     direction -0.34202 -0.939693 0   
     length 7.69484   
     axis 0 0 -20   XYZ
    dof rx
    limits (-10.0 170.0)
 end
 begin
     id 9 
     name rfoot
     direction -0.111837 -0.30727 0.945028   
     length 2.15769  
     axis -90 -7.62852e-016 -20   XYZ
    dof rx rz
    limits (-45.0 90.0)
           (-20.0 70.0)
  end
  begin
     id 10 
     name rtoes
     direction -1.53539e-011 -4.21878e-011 1   
     length 1.07391   
     axis -90 -7.62852e-016 -20   XYZ
    dof rx
    limits (-90.0 20.0)
  end
  begin
     id 11 
     name lowerback
     direction 0.00552624 0.990109 -0.140195   
     length 2.12403   
     axis 0 0 0   XYZ
    dof rx ry rz
    limits (-20.0 45.0)
           (-30.0 30.0)
           (-30.0 30.0)
  end
  begin
     id 12 
     name upperback
     direction 0.00361898 0.999976 -0.00584723   
     length 2.13232   
     axis 0 0 0   XYZ
    dof rx ry rz
    limits (-20.0 45.0)
           (-30.0 30.0)
           (-30.0 30.0)
  end
  begin
     id 13 
     name thorax
     direction -0.000331275 0.998253 0.0590847   
     length 2.17688   
     axis 0 0 0   XYZ
    dof rx ry rz
    limits (-20.0 45.0)
           (-30.0 30.0)
           (-30.0 30.0)
  end
  begin
     id 14 
     name lowerneck
     direction -0.0561561 0.979832 0.19177   
     length 1.64159   
     axis 0 0 0   XYZ
    dof rx ry rz
    limits (-20.0 45.0)
           (-30.0 30.0)
           (-30.0 30.0)
  end
  begin
     id 15 
     name upperneck
     direction 0.0827153 0.979385 -0.184293   
     length 1.68939   
     axis 0 0 0   XYZ
    dof rx ry rz
    limits (-20.0 45.0)
           (-30.0 30.0)
           (-30.0 30.0)
  end
  begin
     id 16
     name head
     direction 0.0278583 0.995936 -0.0856488  
     length 1.70207  
     axis 0 0 0   XYZ
    dof rx ry rz
    limits (-20.0 45.0)
           (-30.0 30.0)
           (-30.0 30.0)
  end
  begin
     id 17 
     name lclavicle
     direction 0.950993 0.301131 -0.0702275  
     length 3.41652  
     axis 0 0 0   XYZ
    dof ry rz
    limits (-20.0 10.0)
           (0.0 20.0)
  end
  begin
     id 18 
     name lhumerus
     direction 1 -4.48981e-011 -3.9662e-029   
     length 5.32955   
     axis 180 -30 -90   XYZ
    dof rx ry rz
    limits (-60.0 90.0)
           (-90.0 90.0)
           (-90.0 90.0)
  end
  begin
     id 19
     name lradius
     direction 1 -4.48925e-011 -9.0549e-027   
     length 3.69232   
     axis 180 -30 -90   XYZ
    dof rx
    limits (-10.0 170.0)
  end
  begin
     id 20
     name lwrist
     direction 1 -4.49007e-011 -1.49005e-026   
     length 1.84616   
     axis 9.0955e-015 90 90   XYZ
    dof ry
    limits (-180.0 0.0)
 end
  begin
     id 21 
     name lhand
     direction 1 -4.49016e-011 -2.98023e-026   
     length 0.536598   
     axis 1.90115e-014 90 90   XYZ
    dof rx rz
    limits (-90.0 90.0)
           (-45.0 45.0)
  end
  begin
     id 22 
     name lfingers
     direction 1 -4.48924e-011 -5.9578e-026   
     length 0.432619   
     axis 3.80223e-014 90 90   XYZ
    dof rx
    limits (0.0 90.0)
  end
  begin
     id 23
     name lthumb
     direction 0.707107 -6.34947e-011 0.707107   
     length 0.621157   
     axis -90 45 -3.84942e-014   XYZ
    dof rx rz
    limits (-45.0 45.0)
           (-45.0 45.0)
  end
  begin
     id 24 
     name rclavicle
     direction -0.955495 0.276497 -0.102848   
     length 3.36357  
     axis 0 0 0   XYZ 
    dof ry rz
    limits (-10.0 20.0)
           (-20.0 0.0)
  end
  begin
     id 25 
     name rhumerus
     direction -1 -4.48961e-011 3.30983e-027  
     length 5.23431   
     axis 180 30 90   XYZ
    dof rx ry rz
    limits (-90.0 60.0)
           (-90.0 90.0)
           (-90.0 90.0)
  end
  begin
     id 26 
     name rradius
     direction -1 -4.48965e-011 -6.63263e-027   
     length 3.55301   
     axis 180 30 90   XYZ
    dof rx
    limits (-10.0 170.0)
  end
  begin
     id 27 
     name rwrist
     direction -1 -4.48942e-011 -1.48958e-026   
     length 1.77651   
     axis 9.0955e-015 -90 -90   XYZ
    dof ry
    limits (-180.0 0.0)
  end
  begin
     id 28
     name rhand
     direction -1 -4.48977e-011 -2.97966e-026   
     length 0.772522   
     axis 1.90115e-014 -90 -90   XYZ
    dof rx rz
    limits (-90.0 90.0)
           (-45.0 45.0)
  end
  begin
     id 29
     name rfingers
     direction -1 -4.49135e-011 -5.96389e-026   
     length 0.622827   
     axis 3.80223e-014 -90 -90   XYZ
    dof rx
    limits (0.0 90.0)
  end
  begin
     id 30
     name rthumb
     direction -0.707107 -6.34969e-011 0.707107   
     length 0.894259   
     axis -90 -45 3.84942e-014   XYZ
    dof rx rz
    limits (-45.0 45.0)
           (-45.0 45.0)
  end
:hierarchy
  begin
    root lhipjoint rhipjoint lowerback
    lhipjoint lfemur
    lfemur ltibia
    ltibia lfoot
    lfoot ltoes
    rhipjoint rfemur
    rfemur rtibia
    rtibia rfoot
    rfoot rtoes
    lowerback upperback
    upperback thorax
    thorax lowerneck lclavicle rclavicle
    lowerneck upperneck
    upperneck head
    lclavicle lhumerus
    lhumerus lradius
    lradius lwrist
    lwrist lhand lthumb
    lhand lfingers
    rclavicle rhumerus
    rhumerus rradius
    rradius rwrist
    rwrist rhand rthumb
    rhand rfingers
  end

#!OML:ASF F:\VICON\USERDATA\INSTALL\rory3\rory3.ASF
:FULLY-SPECIFIED
:DEGREES
17
root -9.99494 18.2272 -14.8583 174.555 -7.7475 177.398
lowerback 10.137 4.00287 3.642
upperback 1.16249 5.61388 -0.370292
thorax -4.06151 2.68052 -3.15812
lowerneck -12.7772 -1.26622 -12.8284
upperneck 40.1589 -5.70273 6.99961
head 17.445 -4.88629 4.02494
rclavicle 3.30076e-014 -2.94201e-014
rhumerus -22.6055 -15.7003 -78.148
rradius 32.3248
rwrist 5.50248
rhand -14.6547 7.15425
rfingers 7.12502
rthumb 11.4978 -22.5104
lclavicle 3.30076e-014 -2.94201e-014
lhumerus -38.1057 20.896 65.5591
lradius 21.6351
lwrist -13.8704
lhand -17.5525 28.1504
lfingers 7.12502
lthumb 8.70224 57.951
rfemur 6.52266 -6.35231 16.4294
rtibia 48.901
rfoot 1.13444 -5.1041
rtoes -3.41015
lfemur -6.20461 -3.92341 -25.7013
ltibia 23.2111
lfoot 2.33435 -8.35522
ltoes -9.75213
18
root -9.96284 18.2247 -14.7361 174.775 -7.72376 177.7
lowerback 10.0819 4.02445 3.76875
upperback 0.948491 5.67077 -0.383466
thorax -4.2372 2.70352 -3.25556
lowerneck -11.8212 -1.71656 -13.098
upperneck 39.9492 -6.79823 7.36468
head 17.2854 -5.38082 4.03542
rclavicle -1.54175e-014 1.47101e-014
rhumerus -22.5773 -15.8955 -78.2306
rradius 32.2805
rwrist 6.36952
rhand -14.1564 7.10449
rfingers 7.12502
rthumb 11.9783 -22.5328
lclavicle -1.54175e-014 1.47101e-014
lhumerus -38.5654 20.9351 65.1158
lradius 21.6625
lwrist -13.7022
lhand -17.9561 27.1162
lfingers 7.12502
lthumb 8.31271 56.9326
rfemur 7.55314 -6.01694 17.0911
rtibia 46.713
rfoot 1.6301 -5.39748
rtoes -4.80897
lfemur -7.20517 -3.97856 -25.2363
ltibia 23.6593
lfoot 2.42023 -8.43621
ltoes -9.40129
19
root -9.93122 18.2212 -14.6112 174.945 -7.60227 178.122
lowerback 10.0047 4.09033 4.0459
upperback 0.835249 5.79584 -0.361049
thorax -4.27805 2.76041 -3.39963
lowerneck -11.0887 -2.28652 -13.2651
upperneck 39.8127 -8.00378 7.53068
head 17.2413 -5.9254 3.91702
rclavicle 8.57142e-014 -1.03368e-014
rhumerus -22.3681 -15.8805 -78.367
rradius 32.112
rwrist 6.79029
rhand -14.0575 7.16777
rfingers 7.12502
rthumb 12.0736 -22.4639
lclavicle 8.57142e-014 -1.03368e-014
lhumerus -38.9009 21.1651 64.6953
lradius 21.7184
lwrist -13.8331
lhand -18.2745 26.0616
lfingers 7.12502
lthumb 8.00541 55.89
rfemur 8.58898 -5.55827 17.9074
rtibia 44.4027
rfoot 2.89022 -5.40833
rtoes -3.10846
lfemur -8.12651 -4.02775 -24.6409
ltibia 24.0174
lfoot 2.47526 -8.38283
ltoes -9.41921
20
root -9.90111 18.2128 -14.4855 175.129 -7.49399 178.497
lowerback 9.73982 4.17014 4.28025
upperback 0.83382 5.91945 -0.333997
thorax -4.10116 2.82461 -3.49157
lowerneck -10.2211 -2.96056 -13.5514
upperneck 39.4434 -9.34528 7.79823
head 17.0795 -6.5168 3.84526
rclavicle -3.53448e-014 -4.77083e-015
rhumerus -21.9829 -15.8883 -78.5453
rradius 31.9001
rwrist 6.84789
rhand -14.2249 7.19326
rfingers 7.12502
rthumb 11.9123 -22.4478
lclavicle -3.53448e-014 -4.77083e-015
lhumerus -39.0877 21.4159 64.4512
lradius 21.8489
lwrist -13.9404
lhand -18.5143 25.5057
lfingers 7.12502
lthumb 7.77392 55.3428
rfemur 9.62557 -5.11788 18.646
rtibia 41.9821
rfoot 4.1477 -5.30614
rtoes -2.10517
lfemur -9.00539 -4.17233 -24.0936
ltibia 24.3601
lfoot 2.57334 -8.29677
ltoes -8.68624
21
root -9.87379 18.2005 -14.3515 175.354 -7.42387 178.792
lowerback 9.46214 4.21288 4.45374
upperback 0.837146 5.98556 -0.293018
thorax -3.92427 2.86175 -3.52677
lowerneck -9.2153 -3.55595 -14.0625
upperneck 38.933 -10.6548 8.42314
head 16.8599 -7.09364 3.98934
rclavicle 2.64415e-014 2.38542e-015
rhumerus -21.5707 -15.8621 -78.6783
rradius 31.7967
rwrist 6.92182
rhand -14.047 7.07309
rfingers 7.12502
rthumb 12.0838 -22.558
lclavicle 2.64415e-014 2.38542e-015
lhumerus -39.1997 21.1907 64.6841
lradius 22.2938
lwrist -13.151
lhand -18.5002 25.6856
lfingers 7.12502
lthumb 7.78757 55.5222
rfemur 10.5821 -4.70544 19.2662
rtibia 39.4971
rfoot 5.03333 -5.29136
rtoes -2.14987
lfemur -9.92241 -4.53353 -23.6264
ltibia 24.7027
lfoot 2.81755 -8.04021
ltoes -6.8672
22
root -9.84218 18.185 -14.2134 175.567 -7.27169 179.133
lowerback 9.2872 4.22797 4.62216
upperback 0.853478 6.01612 -0.243172
thorax -3.7953 2.87915 -3.55431
lowerneck -8.57476 -4.16062 -14.4356
upperneck 38.5537 -11.9627 9.00256
head 16.8157 -7.65205 4.0793
rclavicle 6.20891e-015 -7.95139e-015
rhumerus -21.0846 -15.6319 -78.9355
rradius 31.7082
rwrist 6.96878
rhand -14.0206 6.99803
rfingers 7.12502
rthumb 12.1093 -22.6316
lclavicle 6.20891e-015 -7.95139e-015
lhumerus -39.3047 21.1001 64.8334
lradius 22.7525
lwrist -12.2721
lhand -18.3071 25.941
lfingers 7.12502
lthumb 7.9739 55.7706
rfemur 11.5 -4.22507 19.9498
rtibia 36.9816
rfoot 5.39178 -5.19504
rtoes -1.46819
lfemur -10.8744 -4.82873 -23.0753
ltibia 25.0514
lfoot 2.94387 -7.85208
ltoes -5.97933
23
root -9.80943 18.166 -14.0688 175.813 -7.15287 179.363
lowerback 9.28689 4.22127 4.70937
upperback 0.758612 6.02184 -0.27115
thorax -3.88192 2.87766 -3.63722
lowerneck -8.02454 -4.81227 -14.3273
upperneck 38.3865 -13.2475 8.93235
head 16.8123 -8.2139 3.78893
rclavicle -4.50278e-014 -1.59028e-015
rhumerus -20.7432 -15.4657 -79.2312
rradius 31.4835
rwrist 7.28266
rhand -14.2227 7.21036
rfingers 7.12502
rthumb 11.9143 -22.4306
lclavicle -4.50278e-014 -1.59028e-015
lhumerus -39.6227 21.1237 64.7422
lradius 23.1517
lwrist -11.7706
lhand -17.9227 25.9359
lfingers 7.12502
lthumb 8.34492 55.7511
rfemur 12.3513 -3.82416 20.4764
rtibia 34.4532
rfoot 5.05609 -5.05614
rtoes -2.10073
lfemur -11.9081 -4.98934 -22.6368
ltibia 25.4033
lfoot 2.95433 -7.96718
ltoes -6.71753
24
root -9.77956 18.1399 -13.9208 176.094 -7.01984 179.454
lowerback 9.33189 4.23762 4.71964
upperback 0.625749 6.05305 -0.355742
thorax -4.03299 2.88752 -3.7455
lowerneck -7.20919 -5.45427 -14.1298
upperneck 38.0419 -14.5187 8.83974
head 16.6287 -8.76505 3.49097
rclavicle -1.03362e-013 4.77083e-015
rhumerus -20.4231 -15.448 -79.5264
rradius 31.3242
rwrist 7.52489
rhand -14.3222 7.20361
rfingers 7.12502
rthumb 11.8184 -22.4429
lclavicle -1.03362e-013 4.77083e-015
lhumerus -39.9666 20.9003 64.7894
lradius 23.6534
lwrist -11.0575
lhand -17.5846 25.9985
lfingers 7.12502
lthumb 8.67124 55.8004
rfemur 13.1003 -3.47683 20.7827
rtibia 31.9788
rfoot 4.35898 -4.67518
rtoes -5.30745
lfemur -12.9619 -5.33273 -22.3455
ltibia 25.7548
lfoot 2.90612 -8.04632
ltoes -8.83497
25
root -9.74779 18.1153 -13.7689 176.401 -6.89427 179.624
lowerback 9.27477 4.24726 4.76617
upperback 0.599455 6.06965 -0.361876
thorax -4.0217 2.89547 -3.77547
lowerneck -6.4428 -6.1081 -14.1529
upperneck 37.4992 -15.7828 9.05577
head 16.4117 -9.2951 3.37524
rclavicle 2.70223e-015 8.15017e-015
rhumerus -19.8668 -15.4954 -79.7943
rradius 31.114
rwrist 7.82174
rhand -14.3542 7.34497
rfingers 7.12502
rthumb 11.7876 -22.3033
lclavicle 2.70223e-015 8.15017e-015
lhumerus -40.0807 20.5716 65.2057
lradius 24.233
lwrist -9.89799
lhand -17.7411 26.555
lfingers 7.12502
lthumb 8.52015 56.3631
rfemur 13.6657 -3.03192 21.1905
rtibia 29.7392
rfoot 2.95356 -4.30156
rtoes -7.50513
lfemur -13.9828 -5.79208 -21.9179
ltibia 25.9363
lfoot 2.97048 -8.08419
ltoes -10.4277
26
root -9.71543 18.0912 -13.6131 176.681 -6.75356 179.743
lowerback 9.16067 4.23684 4.77604
upperback 0.693514 6.04348 -0.392227
thorax -3.85771 2.88832 -3.79358
lowerneck -5.75471 -6.73734 -14.2532
upperneck 36.8922 -17.0716 9.5387
head 16.2385 -9.81767 3.38168
rclavicle -7.48549e-015 1.09332e-014
rhumerus -19.1255 -15.3705 -80.1558
rradius 30.901
rwrist 8.01878
rhand -14.6305 7.59729
rfingers 7.12502
rthumb 11.5211 -22.0661
lclavicle -7.48549e-015 1.09332e-014
lhumerus -40.1001 20.1559 65.8015
lradius 25.0249
lwrist -8.19361
lhand -18.3968 27.2014
lfingers 7.12502
lthumb 7.88738 57.0343
rfemur 14.1737 -2.63726 21.4945
rtibia 27.8239
rfoot 1.05379 -4.17892
rtoes -7.99781
lfemur -14.8911 -6.18052 -21.5264
ltibia 25.9202
lfoot 3.19958 -8.12546
ltoes -10.2468
